<?xml version="1.0" encoding="utf-8"?>
<!-- Generator: Adobe Illustrator 15.0.0, SVG Export Plug-In . SVG Version: 6.00 Build 0)  -->
<!DOCTYPE svg PUBLIC "-//W3C//DTD SVG 1.1//EN" "http://www.w3.org/Graphics/SVG/1.1/DTD/svg11.dtd">
<svg version="1.1" id="Layer_1" xmlns="http://www.w3.org/2000/svg" xmlns:xlink="http://www.w3.org/1999/xlink" x="0px" y="0px"
	 width="532px" height="78px" viewBox="0 0 532 78" enable-background="new 0 0 532 78" xml:space="preserve">
<g>
	<path fill="#005394" d="M511.143,16H20.976c-0.552,0-1-0.448-1-1V1c0-0.552,0.448-1,1-1h490.167c0.554,0,1,0.448,1,1v14
		C512.143,15.552,511.695,16,511.143,16z M21.976,14h488.167V2H21.976V14z"/>
</g>
<g>
	<path fill="#005394" d="M1.976,76.75h-2V0.314c0-0.552,0.448-1,1-1h20c0.552,0,1,0.448,1,1v76.353h-2V1.314h-18V76.75z"/>
</g>
<g>
	<path fill="#005394" d="M511.976,76.75h-2V0.314c0-0.552,0.447-1,1-1h20c0.554,0,1,0.448,1,1v76.353h-2V1.314h-18V76.75z"/>
</g>
<g>
	<path fill="#005394" d="M372.976,62c-0.308,0-0.598-0.143-0.786-0.384l-36-46c-0.236-0.301-0.279-0.709-0.112-1.053
		s0.516-0.562,0.896-0.563l174.167-0.333c0.001,0,0.001,0,0.002,0c0.266,0,0.52,0.105,0.706,0.292
		c0.188,0.188,0.294,0.442,0.294,0.708v46c0,0.551-0.445,0.999-0.997,1L372.978,62C372.978,62,372.977,62,372.976,62z
		 M339.025,15.996l34.437,44.003l136.681-0.33v-44L339.025,15.996z"/>
</g>
<g>
	<path fill="#005394" d="M454.976,39h-56c-0.553,0-1-0.448-1-1s0.447-1,1-1h56c0.554,0,1,0.448,1,1S455.528,39,454.976,39z"/>
</g>
<g>
	<path fill="#005394" d="M158.935,62H21.143c-0.552,0-1-0.448-1-1V15c0-0.552,0.448-1,1-1h173.792c0.382,0,0.731,0.218,0.899,0.562
		s0.125,0.753-0.111,1.054l-36,46C159.533,61.857,159.242,62,158.935,62z M22.143,60h136.305l34.435-44H22.143V60z"/>
</g>
<g>
	<path fill="#005394" d="M132.935,39h-56c-0.552,0-1-0.448-1-1s0.448-1,1-1h56c0.552,0,1,0.448,1,1S133.487,39,132.935,39z"/>
</g>
</svg>
