<?xml version="1.0" encoding="utf-8"?>
<!-- Generator: Adobe Illustrator 19.1.0, SVG Export Plug-In . SVG Version: 6.00 Build 0)  -->
<svg version="1.1" id="Layer_1" xmlns="http://www.w3.org/2000/svg" xmlns:xlink="http://www.w3.org/1999/xlink" x="0px" y="0px"
	 viewBox="0 0 56.7 56.7" style="enable-background:new 0 0 56.7 56.7;" xml:space="preserve">
<style type="text/css">
	.st0{fill:#FFFFFF;}
</style>
<g>
	<g>
		<path class="st0" d="M23.4,12.1c1.2,0,2.2,1.2,2.2,2.6l0,8.5v5.1v2c0,0.5,0.4,0.8,0.8,0.8c0.5,0,0.8-0.4,0.8-0.8v-2v-5.1
			c0-1.4,0.9-2.4,2.2-2.4c1.2,0,2.2,1,2.2,2.4v2.1v3v2c0,0.5,0.4,0.8,0.8,0.8c0.5,0,0.8-0.4,0.8-0.8v-2v-3c0-1.4,0.9-2.4,2.2-2.4
			c1.2,0,2.2,1,2.2,2.4v2.6v0.4v2.5c0,0.5,0.4,0.8,0.8,0.8c0.5,0,0.8-0.4,0.8-0.8v-2.5v-0.4c0-1.3,0.9-2.3,2.2-2.3
			c1.2,0,2.2,1.1,2.2,2.5l0,11.5c0,8-5.8,10.8-11.2,10.8h-2.1c-6,0-10.3-2.4-11.8-6.5c0-0.1-0.1-0.2-0.1-0.2L18,42.4
			c-0.3-1.3-0.5-2.5-0.7-4.3c-0.1-0.6-0.2-1.3-0.3-2c-0.8-5.3-3.8-8.3-4.5-8.9c-0.5-1.4-0.3-2.4,0.8-3c0.4-0.2,0.8-0.4,1.2-0.4
			c0.7,0,1.3,0.3,1.9,1.1c0,0,2.3,2.7,3.4,5.5v1.1c0,0.5,0.4,0.8,0.8,0.8c0.5,0,0.8-0.3,0.8-0.8l0-16.8
			C21.3,13.3,22.2,12.1,23.4,12.1 M23.4,10.1c-2.3,0-4.1,2-4.1,4.6l0,10.9c-0.8-1.2-1.5-2-1.5-2c-1-1.1-2.1-1.7-3.4-1.7
			c-0.7,0-1.5,0.2-2.2,0.6c-1.9,1.1-2.6,3.2-1.7,5.5l0.2,0.4l0.3,0.3c0.5,0.5,3.2,3.1,3.9,7.7c0.1,0.7,0.2,1.3,0.3,1.9l0,0.1
			c0.2,1.8,0.4,3.1,0.8,4.5l0,0.1l0,0.1l0.5,1.2l0.1,0.3l0.1,0.1c1.8,4.9,6.7,7.7,13.6,7.7h2.1c6.1,0,13.2-3.4,13.2-12.8l0-11.5
			c0-2.5-1.9-4.5-4.2-4.5c-0.7,0-1.4,0.2-2,0.5c-0.5-1.9-2.1-3.2-4-3.2c-0.8,0-1.5,0.2-2.1,0.6c-0.6-1.6-2.1-2.7-3.9-2.7
			c-0.7,0-1.3,0.2-1.8,0.4l0-4.5C27.7,12.2,25.8,10.1,23.4,10.1L23.4,10.1z"/>
	</g>
</g>
</svg>
